<svg width="36" height="36" viewBox="0 0 36 36" fill="none" xmlns="http://www.w3.org/2000/svg">
<path d="M22.5749 7.5C24.04 7.78585 25.3865 8.50239 26.442 9.5579C27.4975 10.6134 28.2141 11.9599 28.4999 13.425L22.5749 7.5ZM22.5749 1.5C25.6188 1.83815 28.4573 3.20126 30.6243 5.36551C32.7912 7.52976 34.1579 10.3665 34.4999 13.41L22.5749 1.5ZM32.9999 25.38V29.88C33.0016 30.2978 32.916 30.7113 32.7487 31.094C32.5813 31.4768 32.3358 31.8204 32.028 32.1028C31.7202 32.3852 31.3568 32.6002 30.961 32.7341C30.5653 32.8679 30.146 32.9176 29.7299 32.88C25.1142 32.3785 20.6804 30.8012 16.7849 28.275C13.1606 25.972 10.0879 22.8993 7.7849 19.275C5.24987 15.3618 3.67226 10.9065 3.1799 6.27C3.14242 5.8552 3.19171 5.43714 3.32465 5.04244C3.45759 4.64773 3.67126 4.28503 3.95205 3.97743C4.23284 3.66983 4.57461 3.42406 4.95559 3.25578C5.33657 3.0875 5.74841 3.00039 6.1649 3H10.6649C11.3929 2.99284 12.0986 3.25062 12.6505 3.7253C13.2025 4.19998 13.563 4.85917 13.6649 5.58C13.8548 7.0201 14.2071 8.43409 14.7149 9.795C14.9167 10.3319 14.9604 10.9154 14.8408 11.4763C14.7211 12.0373 14.4432 12.5522 14.0399 12.96L12.1349 14.865C14.2702 18.6203 17.3796 21.7297 21.1349 23.865L23.0399 21.96C23.4477 21.5567 23.9626 21.2788 24.5236 21.1591C25.0845 21.0395 25.668 21.0832 26.2049 21.285C27.5658 21.7928 28.9798 22.1451 30.4199 22.335C31.1485 22.4378 31.814 22.8048 32.2897 23.3662C32.7654 23.9277 33.0182 24.6444 32.9999 25.38Z" stroke="white" stroke-width="2" stroke-linecap="round" stroke-linejoin="round"/>
</svg>
