<svg width="40" height="40" viewBox="0 0 40 40" fill="none" xmlns="http://www.w3.org/2000/svg">
<g clip-path="url(#clip0_73_48)">
<path d="M30.0517 27.6949L37.19 34.8316L34.8317 37.1899L27.695 30.0516C25.0396 32.1803 21.7367 33.3381 18.3334 33.3333C10.0534 33.3333 3.33337 26.6133 3.33337 18.3333C3.33337 10.0533 10.0534 3.33325 18.3334 3.33325C26.6134 3.33325 33.3334 10.0533 33.3334 18.3333C33.3382 21.7366 32.1804 25.0395 30.0517 27.6949ZM26.7084 26.4583C28.8236 24.2831 30.0048 21.3673 30 18.3333C30 11.8866 24.7784 6.66659 18.3334 6.66659C11.8867 6.66659 6.66671 11.8866 6.66671 18.3333C6.66671 24.7783 11.8867 29.9999 18.3334 29.9999C21.3674 30.0047 24.2832 28.8234 26.4584 26.7083L26.7084 26.4583Z" fill="white"/>
</g>
<defs>
<clipPath id="clip0_73_48">
<rect width="40" height="40" fill="white"/>
</clipPath>
</defs>
</svg>
