<svg width="372" height="192" viewBox="0 0 372 192" fill="none" xmlns="http://www.w3.org/2000/svg">
<g clip-path="url(#clip0_147_56)">
<path d="M116.309 23.8601C117.791 23.8601 118.992 22.6576 118.992 21.1741C118.992 19.6907 117.791 18.4882 116.309 18.4882C114.827 18.4882 113.626 19.6907 113.626 21.1741C113.626 22.6576 114.827 23.8601 116.309 23.8601Z" fill="#F2F2F2"/>
<path d="M105.616 23.8601C107.098 23.8601 108.299 22.6576 108.299 21.1741C108.299 19.6907 107.098 18.4882 105.616 18.4882C104.135 18.4882 102.934 19.6907 102.934 21.1741C102.934 22.6576 104.135 23.8601 105.616 23.8601Z" fill="#F2F2F2"/>
<path d="M94.9241 23.8601C96.4058 23.8601 97.607 22.6576 97.607 21.1741C97.607 19.6907 96.4058 18.4882 94.9241 18.4882C93.4424 18.4882 92.2412 19.6907 92.2412 21.1741C92.2412 22.6576 93.4424 23.8601 94.9241 23.8601Z" fill="#F2F2F2"/>
<path d="M84.2317 23.8601C85.7134 23.8601 86.9146 22.6576 86.9146 21.1741C86.9146 19.6907 85.7134 18.4882 84.2317 18.4882C82.75 18.4882 81.5488 19.6907 81.5488 21.1741C81.5488 22.6576 82.75 23.8601 84.2317 23.8601Z" fill="#F2F2F2"/>
<path d="M116.309 35.0743C117.791 35.0743 118.992 33.8717 118.992 32.3883C118.992 30.9049 117.791 29.7024 116.309 29.7024C114.827 29.7024 113.626 30.9049 113.626 32.3883C113.626 33.8717 114.827 35.0743 116.309 35.0743Z" fill="#F2F2F2"/>
<path d="M105.616 35.0743C107.098 35.0743 108.299 33.8717 108.299 32.3883C108.299 30.9049 107.098 29.7024 105.616 29.7024C104.135 29.7024 102.934 30.9049 102.934 32.3883C102.934 33.8717 104.135 35.0743 105.616 35.0743Z" fill="#F2F2F2"/>
<path d="M94.9241 35.0743C96.4058 35.0743 97.607 33.8717 97.607 32.3883C97.607 30.9049 96.4058 29.7024 94.9241 29.7024C93.4424 29.7024 92.2412 30.9049 92.2412 32.3883C92.2412 33.8717 93.4424 35.0743 94.9241 35.0743Z" fill="#F2F2F2"/>
<path d="M84.2317 35.0743C85.7134 35.0743 86.9146 33.8717 86.9146 32.3883C86.9146 30.9049 85.7134 29.7024 84.2317 29.7024C82.75 29.7024 81.5488 30.9049 81.5488 32.3883C81.5488 33.8717 82.75 35.0743 84.2317 35.0743Z" fill="#F2F2F2"/>
<path d="M116.309 46.2885C117.791 46.2885 118.992 45.0859 118.992 43.6025C118.992 42.1191 117.791 40.9166 116.309 40.9166C114.827 40.9166 113.626 42.1191 113.626 43.6025C113.626 45.0859 114.827 46.2885 116.309 46.2885Z" fill="#F2F2F2"/>
<path d="M105.616 46.2885C107.098 46.2885 108.299 45.0859 108.299 43.6025C108.299 42.1191 107.098 40.9166 105.616 40.9166C104.135 40.9166 102.934 42.1191 102.934 43.6025C102.934 45.0859 104.135 46.2885 105.616 46.2885Z" fill="#F2F2F2"/>
<path d="M94.9241 46.2885C96.4058 46.2885 97.607 45.0859 97.607 43.6025C97.607 42.1191 96.4058 40.9166 94.9241 40.9166C93.4424 40.9166 92.2412 42.1191 92.2412 43.6025C92.2412 45.0859 93.4424 46.2885 94.9241 46.2885Z" fill="#F2F2F2"/>
<path d="M84.2317 46.2885C85.7134 46.2885 86.9146 45.0859 86.9146 43.6025C86.9146 42.1191 85.7134 40.9166 84.2317 40.9166C82.75 40.9166 81.5488 42.1191 81.5488 43.6025C81.5488 45.0859 82.75 46.2885 84.2317 46.2885Z" fill="#F2F2F2"/>
<path d="M116.309 57.5026C117.791 57.5026 118.992 56.3001 118.992 54.8167C118.992 53.3333 117.791 52.1307 116.309 52.1307C114.827 52.1307 113.626 53.3333 113.626 54.8167C113.626 56.3001 114.827 57.5026 116.309 57.5026Z" fill="#F2F2F2"/>
<path d="M105.616 57.5026C107.098 57.5026 108.299 56.3001 108.299 54.8167C108.299 53.3333 107.098 52.1307 105.616 52.1307C104.135 52.1307 102.934 53.3333 102.934 54.8167C102.934 56.3001 104.135 57.5026 105.616 57.5026Z" fill="#F2F2F2"/>
<path d="M94.9241 57.5026C96.4058 57.5026 97.607 56.3001 97.607 54.8167C97.607 53.3333 96.4058 52.1307 94.9241 52.1307C93.4424 52.1307 92.2412 53.3333 92.2412 54.8167C92.2412 56.3001 93.4424 57.5026 94.9241 57.5026Z" fill="#F2F2F2"/>
<path d="M84.2317 57.5026C85.7134 57.5026 86.9146 56.3001 86.9146 54.8167C86.9146 53.3333 85.7134 52.1307 84.2317 52.1307C82.75 52.1307 81.5488 53.3333 81.5488 54.8167C81.5488 56.3001 82.75 57.5026 84.2317 57.5026Z" fill="#F2F2F2"/>
<path d="M116.309 68.7168C117.791 68.7168 118.992 67.5143 118.992 66.0309C118.992 64.5475 117.791 63.3449 116.309 63.3449C114.827 63.3449 113.626 64.5475 113.626 66.0309C113.626 67.5143 114.827 68.7168 116.309 68.7168Z" fill="#F2F2F2"/>
<path d="M105.616 68.7168C107.098 68.7168 108.299 67.5143 108.299 66.0309C108.299 64.5475 107.098 63.3449 105.616 63.3449C104.135 63.3449 102.934 64.5475 102.934 66.0309C102.934 67.5143 104.135 68.7168 105.616 68.7168Z" fill="#F2F2F2"/>
<path d="M94.9241 68.7168C96.4058 68.7168 97.607 67.5143 97.607 66.0309C97.607 64.5475 96.4058 63.3449 94.9241 63.3449C93.4424 63.3449 92.2412 64.5475 92.2412 66.0309C92.2412 67.5143 93.4424 68.7168 94.9241 68.7168Z" fill="#F2F2F2"/>
<path d="M84.2317 68.7168C85.7134 68.7168 86.9146 67.5143 86.9146 66.0309C86.9146 64.5475 85.7134 63.3449 84.2317 63.3449C82.75 63.3449 81.5488 64.5475 81.5488 66.0309C81.5488 67.5143 82.75 68.7168 84.2317 68.7168Z" fill="#F2F2F2"/>
<path d="M116.309 79.931C117.791 79.931 118.992 78.7285 118.992 77.245C118.992 75.7616 117.791 74.5591 116.309 74.5591C114.827 74.5591 113.626 75.7616 113.626 77.245C113.626 78.7285 114.827 79.931 116.309 79.931Z" fill="#F2F2F2"/>
<path d="M105.616 79.931C107.098 79.931 108.299 78.7285 108.299 77.245C108.299 75.7616 107.098 74.5591 105.616 74.5591C104.135 74.5591 102.934 75.7616 102.934 77.245C102.934 78.7285 104.135 79.931 105.616 79.931Z" fill="#F2F2F2"/>
<path d="M94.9241 79.931C96.4058 79.931 97.607 78.7285 97.607 77.245C97.607 75.7616 96.4058 74.5591 94.9241 74.5591C93.4424 74.5591 92.2412 75.7616 92.2412 77.245C92.2412 78.7285 93.4424 79.931 94.9241 79.931Z" fill="#F2F2F2"/>
<path d="M84.2317 79.931C85.7134 79.931 86.9146 78.7285 86.9146 77.245C86.9146 75.7616 85.7134 74.5591 84.2317 74.5591C82.75 74.5591 81.5488 75.7616 81.5488 77.245C81.5488 78.7285 82.75 79.931 84.2317 79.931Z" fill="#F2F2F2"/>
<path d="M92.7341 150.519V151.35C92.7353 152.726 93.2821 154.046 94.2544 155.02C95.2266 155.993 96.545 156.54 97.92 156.542H135.258C136.633 156.541 137.952 155.994 138.924 155.02C139.897 154.047 140.443 152.727 140.444 151.35V150.519C140.446 149.304 140.02 148.127 139.24 147.196C138.981 146.887 138.687 146.609 138.365 146.366C138.365 146.366 117.838 145.901 117.838 145.327H97.92C96.5452 145.329 95.2272 145.877 94.2551 146.85C93.283 147.823 92.736 149.143 92.7341 150.519Z" fill="#CCCCCC"/>
<path d="M119.586 156.335H114.193V191.224H119.586V156.335Z" fill="#CCCCCC"/>
<path d="M134.936 191.034C134.936 191.618 126.763 191.26 116.682 191.26C106.6 191.26 98.4277 191.618 98.4277 191.034C98.4277 190.451 106.6 185.825 116.682 185.825C126.763 185.825 134.936 190.451 134.936 191.034Z" fill="#CCCCCC"/>
<path d="M127.521 149.815C127.91 149.292 128.18 148.689 128.312 148.051C128.444 147.412 128.434 146.752 128.283 146.117C128.133 145.483 127.845 144.889 127.44 144.377C127.036 143.866 126.524 143.45 125.941 143.158L114.511 104.164L105.806 108.432L119.779 145.42C119.355 146.432 119.315 147.566 119.669 148.605C120.023 149.645 120.746 150.518 121.7 151.06C122.655 151.601 123.774 151.774 124.847 151.544C125.92 151.315 126.871 150.699 127.521 149.815L127.521 149.815Z" fill="#A0616A"/>
<path d="M117.1 110.676L107.358 113.316C107.081 113.391 106.791 113.406 106.508 113.358C106.224 113.311 105.955 113.203 105.717 113.042C105.479 112.881 105.278 112.671 105.129 112.425C104.98 112.18 104.885 111.905 104.851 111.619L103.674 101.615C103.298 100.193 103.501 98.6796 104.238 97.4071C104.975 96.1346 106.185 95.2065 107.605 94.8263C109.024 94.4461 110.536 94.6448 111.809 95.379C113.082 96.1131 114.013 97.3227 114.396 98.7426L118.41 107.945C118.525 108.208 118.581 108.493 118.576 108.781C118.571 109.068 118.504 109.351 118.38 109.611C118.255 109.87 118.077 110.099 117.856 110.283C117.635 110.467 117.377 110.601 117.1 110.676H117.1Z" fill="#FF5300"/>
<path d="M130.067 186.945L135.153 186.945L137.573 173.738H130.066L130.067 186.945Z" fill="#A0616A"/>
<path d="M128.77 185.283L138.786 185.282H138.786C139.625 185.282 140.455 185.447 141.229 185.769C142.004 186.09 142.707 186.56 143.3 187.154C143.893 187.747 144.363 188.452 144.684 189.227C145.005 190.002 145.17 190.833 145.17 191.673V191.88L128.77 191.881L128.77 185.283Z" fill="#2F2E41"/>
<path d="M135.971 179.863C135.912 179.863 135.852 179.86 135.792 179.855L128.753 179.342C128.469 179.315 128.194 179.224 127.95 179.074C127.707 178.924 127.5 178.721 127.348 178.479C127.195 178.237 127.1 177.963 127.07 177.678C127.039 177.394 127.075 177.106 127.173 176.837L136.593 155.649C136.661 155.46 136.688 155.259 136.674 155.059C136.66 154.859 136.605 154.664 136.512 154.486C136.419 154.307 136.289 154.149 136.131 154.023C135.973 153.897 135.79 153.806 135.595 153.756C131.165 152.596 119.8 149.51 109.961 145.898C105.746 144.351 103.092 142.115 102.071 139.252C100.726 135.478 102.716 132.036 102.802 131.891L102.868 131.778L112.126 132.621L122.162 133.475L144.155 145.282C145.998 146.28 147.398 147.936 148.076 149.921C148.754 151.906 148.661 154.073 147.814 155.992L137.674 178.755C137.528 179.085 137.289 179.365 136.986 179.562C136.684 179.758 136.331 179.863 135.971 179.863Z" fill="#2F2E41"/>
<path d="M113.736 90.7007C119.363 90.7007 123.925 86.1335 123.925 80.4995C123.925 74.8656 119.363 70.2983 113.736 70.2983C108.108 70.2983 103.546 74.8656 103.546 80.4995C103.546 86.1335 108.108 90.7007 113.736 90.7007Z" fill="#A0616A"/>
<path d="M127.163 186.53L132.249 186.529L134.669 173.323H127.162L127.163 186.53Z" fill="#A0616A"/>
<path d="M125.865 184.867L135.882 184.867H135.882C136.721 184.867 137.551 185.032 138.325 185.353C139.1 185.674 139.803 186.145 140.396 186.738C140.989 187.332 141.459 188.036 141.78 188.812C142.101 189.587 142.266 190.418 142.266 191.257V191.465L125.866 191.466L125.865 184.867Z" fill="#2F2E41"/>
<path d="M133.067 181.109C133.008 181.109 132.948 181.106 132.888 181.101L125.849 180.588C125.565 180.561 125.29 180.47 125.046 180.32C124.803 180.17 124.596 179.967 124.444 179.725C124.291 179.483 124.196 179.209 124.166 178.924C124.135 178.64 124.171 178.352 124.269 178.083L133.689 156.895C133.757 156.706 133.784 156.505 133.77 156.305C133.756 156.105 133.701 155.91 133.608 155.732C133.515 155.553 133.385 155.395 133.227 155.269C133.069 155.143 132.886 155.052 132.69 155.002C128.261 153.842 116.896 150.756 107.057 147.144C102.842 145.597 100.188 143.361 99.1672 140.498C97.8217 136.724 99.8122 133.282 99.8975 133.137L99.9643 133.024L109.222 133.867L119.258 134.721L141.251 146.528C143.094 147.526 144.494 149.182 145.172 151.167C145.85 153.152 145.757 155.319 144.91 157.238L134.77 180.001C134.624 180.331 134.385 180.611 134.082 180.808C133.78 181.004 133.427 181.109 133.067 181.109Z" fill="#2F2E41"/>
<path d="M116.878 96.4852L106.092 92.7472C106.092 92.7472 99.3203 97.9555 102.573 110.876C104.271 117.544 103.777 124.582 101.163 130.945C100.848 131.733 100.485 132.5 100.076 133.243C100.076 133.243 112.107 147.78 123.309 136.981L118.953 116.006C118.953 116.006 125.798 102.092 116.878 96.4852Z" fill="#2F2E41"/>
<path d="M115.001 91.0476C113.551 88.8745 112.406 85.8611 114.003 83.7934C115.579 81.7523 118.687 82.053 121.101 81.1498C124.463 79.8919 126.413 75.9376 125.805 72.3963C125.197 68.8549 122.357 65.9193 118.975 64.7181C115.592 63.517 111.778 63.9076 108.465 65.2908C104.387 66.9936 100.889 70.2875 99.4222 74.46C97.9553 78.6325 98.7395 83.6424 101.782 86.8494C105.045 90.2877 110.165 91.2041 114.902 91.1485" fill="#2F2E41"/>
<path d="M105.522 72.5099C103.695 73.9993 100.907 73.3378 98.9451 72.0307C96.9835 70.7236 95.3918 68.8624 93.2694 67.8375C89.5276 66.0308 85.0037 67.2319 81.362 69.2331C77.7203 71.2344 74.4922 73.9992 70.6455 75.5696C66.7988 77.1401 61.8902 77.2177 58.9775 74.2523C58.2607 76.3315 58.2021 78.5814 58.8097 80.6951C59.4173 82.8087 60.6615 84.6833 62.3725 86.0629C64.0835 87.4425 66.1781 88.2601 68.3703 88.4039C70.5626 88.5478 72.7458 88.011 74.6221 86.8668C78.8369 84.2965 81.165 78.9074 85.8923 77.4887C88.5083 76.7037 91.3172 77.336 93.9611 78.0208C96.605 78.7056 99.3618 79.4456 102.03 78.8626C104.698 78.2796 107.194 75.8792 106.854 73.1663L105.522 72.5099Z" fill="#2F2E41"/>
<path d="M138.692 168.631C137.614 161.615 137.614 154.475 138.692 147.459C138.761 147.041 138.975 146.661 139.297 146.387C139.619 146.113 140.028 145.962 140.45 145.961H156.992C157.26 145.96 157.525 146.021 157.766 146.138C158.007 146.255 158.219 146.425 158.384 146.637C158.553 146.851 158.671 147.101 158.729 147.367C158.787 147.634 158.784 147.91 158.719 148.175C157.172 154.664 157.172 161.426 158.719 167.914C158.784 168.179 158.787 168.456 158.729 168.722C158.671 168.989 158.553 169.239 158.384 169.453C158.219 169.664 158.007 169.835 157.766 169.952C157.525 170.069 157.26 170.129 156.992 170.128H140.45C140.028 170.128 139.619 169.977 139.297 169.702C138.975 169.428 138.761 169.048 138.692 168.631Z" fill="#FF5300"/>
<path d="M151.901 156.21H143.221C142.891 156.21 142.575 156.079 142.341 155.845C142.108 155.611 141.977 155.295 141.976 154.964V154.478C141.977 154.147 142.108 153.831 142.341 153.597C142.575 153.363 142.891 153.232 143.221 153.232H151.901C152.231 153.232 152.548 153.363 152.781 153.597C153.014 153.831 153.146 154.147 153.146 154.478V154.964C153.146 155.295 153.014 155.611 152.781 155.845C152.548 156.079 152.231 156.21 151.901 156.21Z" fill="white"/>
<path d="M151.901 161.338H143.221C142.891 161.337 142.575 161.206 142.341 160.972C142.108 160.739 141.977 160.422 141.976 160.092V159.605C141.977 159.274 142.108 158.958 142.341 158.724C142.575 158.49 142.891 158.359 143.221 158.359H151.901C152.231 158.359 152.548 158.49 152.781 158.724C153.014 158.958 153.146 159.274 153.146 159.605V160.092C153.146 160.422 153.014 160.739 152.781 160.972C152.548 161.206 152.231 161.337 151.901 161.338Z" fill="white"/>
<path d="M143.042 147.946C143.289 147.342 143.4 146.691 143.368 146.04C143.336 145.388 143.162 144.752 142.858 144.175C142.554 143.598 142.127 143.095 141.608 142.701C141.088 142.307 140.489 142.032 139.852 141.896L119.052 106.997L111.689 113.307L134.45 145.627C134.291 146.713 134.536 147.821 135.138 148.739C135.74 149.657 136.658 150.321 137.717 150.607C138.776 150.893 139.903 150.78 140.885 150.29C141.866 149.799 142.634 148.965 143.042 147.946L143.042 147.946Z" fill="#A0616A"/>
<path d="M123.185 112.655L114.411 117.648C114.161 117.79 113.884 117.877 113.598 117.902C113.312 117.927 113.024 117.89 112.753 117.794C112.482 117.697 112.236 117.543 112.03 117.343C111.824 117.143 111.664 116.9 111.56 116.632L107.923 107.239C107.205 105.956 107.023 104.441 107.419 103.024C107.815 101.608 108.756 100.406 110.035 99.6831C111.315 98.96 112.828 98.7743 114.244 99.1666C115.66 99.559 116.863 100.497 117.589 101.776L123.771 109.683C123.948 109.909 124.074 110.171 124.141 110.451C124.208 110.73 124.214 111.021 124.158 111.303C124.102 111.585 123.987 111.852 123.819 112.085C123.651 112.318 123.435 112.513 123.185 112.655Z" fill="#2F2E41"/>
<path d="M216.547 124.913H48.1109C47.3957 124.913 46.7098 125.198 46.2041 125.704C45.6984 126.21 45.4143 126.897 45.4143 127.613C45.4143 128.329 45.6984 129.016 46.2041 129.522C46.7098 130.028 47.3957 130.313 48.1109 130.313H52.8819V189.083C52.8819 189.799 53.166 190.486 53.6717 190.992C54.1774 191.499 54.8633 191.783 55.5785 191.783C56.2937 191.783 56.9796 191.499 57.4853 190.992C57.9911 190.486 58.2752 189.799 58.2752 189.083V135.5L88.5069 190.358C88.8653 190.976 89.4541 191.427 90.1442 191.612C90.8343 191.796 91.5693 191.699 92.1878 191.341C92.8064 190.984 93.258 190.395 93.4436 189.704C93.6291 189.014 93.5335 188.278 93.1776 187.658L61.5748 130.313H205.967V130.348L174.384 187.658C174.027 188.278 173.93 189.015 174.115 189.706C174.3 190.398 174.752 190.988 175.371 191.346C175.99 191.704 176.726 191.801 177.417 191.615C178.108 191.43 178.697 190.978 179.055 190.358L205.967 141.523V189.083C205.967 189.799 206.252 190.486 206.757 190.992C207.263 191.499 207.949 191.783 208.664 191.783C209.379 191.783 210.065 191.499 210.571 190.992C211.077 190.486 211.361 189.799 211.361 189.083V131.736L212.145 130.313H216.547C217.262 130.313 217.948 130.028 218.453 129.522C218.959 129.016 219.243 128.329 219.243 127.613C219.243 126.897 218.959 126.21 218.453 125.704C217.948 125.198 217.262 124.913 216.547 124.913Z" fill="#3F3D56"/>
<path d="M146.849 123.252H114.075C113.273 123.252 112.623 123.903 112.623 124.706C112.623 125.509 113.273 126.159 114.075 126.159H146.849C147.651 126.159 148.301 125.509 148.301 124.706C148.301 123.903 147.651 123.252 146.849 123.252Z" fill="#CCCCCC"/>
<path d="M168.837 126.159H131.914C131.199 126.159 130.513 125.874 130.008 125.368C129.502 124.862 129.218 124.175 129.217 123.46V103.108C129.218 102.392 129.502 101.706 130.008 101.2C130.513 100.694 131.199 100.409 131.914 100.408H168.837C169.552 100.409 170.237 100.694 170.743 101.2C171.248 101.706 171.533 102.392 171.533 103.108V123.46C171.533 124.175 171.248 124.862 170.743 125.368C170.237 125.874 169.552 126.159 168.837 126.159Z" fill="#CCCCCC"/>
<path d="M150.375 115.776C151.75 115.776 152.865 114.66 152.865 113.284C152.865 111.908 151.75 110.792 150.375 110.792C149.001 110.792 147.886 111.908 147.886 113.284C147.886 114.66 149.001 115.776 150.375 115.776Z" fill="white"/>
<path d="M197.015 76.0162V3.12395C197.016 2.29571 197.345 1.50167 197.93 0.916022C198.515 0.330372 199.308 0.00094209 200.135 0H257.689C258.516 0.00094209 259.309 0.330372 259.894 0.916022C260.479 1.50167 260.808 2.29571 260.809 3.12395V76.0162C260.808 76.8444 260.479 77.6384 259.894 78.2241C259.309 78.8097 258.516 79.1392 257.689 79.1401H200.135C199.308 79.1392 198.515 78.8097 197.93 78.2241C197.345 77.6384 197.016 76.8444 197.015 76.0162ZM200.135 0.694213C199.492 0.694936 198.875 0.951158 198.42 1.40667C197.965 1.86217 197.709 2.47976 197.708 3.12395V76.0162C197.709 76.6603 197.965 77.2779 198.42 77.7334C198.875 78.1889 199.492 78.4452 200.135 78.4459H257.689C258.333 78.4452 258.949 78.1889 259.404 77.7334C259.859 77.2779 260.115 76.6603 260.116 76.0162V3.12395C260.115 2.47976 259.859 1.86217 259.404 1.40667C258.949 0.951158 258.333 0.694936 257.689 0.694213H200.135Z" fill="#E6E6E6"/>
<path d="M232.139 33.4755V18.5084C232.14 18.0943 232.304 17.6972 232.597 17.4044C232.889 17.1116 233.286 16.9469 233.7 16.9464H246.368C246.782 16.9469 247.179 17.1116 247.471 17.4044C247.764 17.6972 247.928 18.0943 247.929 18.5084V33.4755C247.928 33.8896 247.764 34.2866 247.471 34.5794C247.179 34.8723 246.782 35.037 246.368 35.0374H233.7C233.286 35.037 232.889 34.8723 232.597 34.5794C232.304 34.2866 232.14 33.8896 232.139 33.4755Z" fill="#FF5300"/>
<path d="M207.523 40.4176V25.4505C207.524 25.0364 207.688 24.6394 207.981 24.3466C208.273 24.0537 208.67 23.889 209.083 23.8885H221.752C222.166 23.889 222.562 24.0537 222.855 24.3466C223.147 24.6394 223.312 25.0364 223.312 25.4505V40.4176C223.312 40.8317 223.147 41.2288 222.855 41.5216C222.562 41.8144 222.166 41.9791 221.752 41.9796H209.083C208.67 41.9791 208.273 41.8144 207.981 41.5216C207.688 41.2288 207.524 40.8317 207.523 40.4176Z" fill="#CCCCCC"/>
<path d="M227.286 61.591V46.6239C227.286 46.2098 227.451 45.8128 227.743 45.52C228.036 45.2271 228.432 45.0624 228.846 45.062H241.515C241.928 45.0624 242.325 45.2271 242.617 45.52C242.91 45.8128 243.074 46.2098 243.075 46.6239V61.591C243.074 62.0051 242.91 62.4021 242.617 62.695C242.325 62.9878 241.928 63.1525 241.515 63.153H228.846C228.432 63.1525 228.036 62.9878 227.743 62.695C227.451 62.4022 227.286 62.0051 227.286 61.591Z" fill="#FF6584"/>
<path d="M323.903 7.5954C325.385 7.5954 326.586 6.39285 326.586 4.90944C326.586 3.42602 325.385 2.22348 323.903 2.22348C322.421 2.22348 321.22 3.42602 321.22 4.90944C321.22 6.39285 322.421 7.5954 323.903 7.5954Z" fill="#F2F2F2"/>
<path d="M323.903 18.3001C325.385 18.3001 326.586 17.0975 326.586 15.6141C326.586 14.1307 325.385 12.9282 323.903 12.9282C322.421 12.9282 321.22 14.1307 321.22 15.6141C321.22 17.0975 322.421 18.3001 323.903 18.3001Z" fill="#F2F2F2"/>
<path d="M323.903 29.0048C325.385 29.0048 326.586 27.8022 326.586 26.3188C326.586 24.8354 325.385 23.6328 323.903 23.6328C322.421 23.6328 321.22 24.8354 321.22 26.3188C321.22 27.8022 322.421 29.0048 323.903 29.0048Z" fill="#F2F2F2"/>
<path d="M323.903 39.7094C325.385 39.7094 326.586 38.5069 326.586 37.0235C326.586 35.5401 325.385 34.3375 323.903 34.3375C322.421 34.3375 321.22 35.5401 321.22 37.0235C321.22 38.5069 322.421 39.7094 323.903 39.7094Z" fill="#F2F2F2"/>
<path d="M312.701 7.5954C314.183 7.5954 315.384 6.39285 315.384 4.90944C315.384 3.42602 314.183 2.22348 312.701 2.22348C311.22 2.22348 310.019 3.42602 310.019 4.90944C310.019 6.39285 311.22 7.5954 312.701 7.5954Z" fill="#F2F2F2"/>
<path d="M312.701 18.3001C314.183 18.3001 315.384 17.0975 315.384 15.6141C315.384 14.1307 314.183 12.9282 312.701 12.9282C311.22 12.9282 310.019 14.1307 310.019 15.6141C310.019 17.0975 311.22 18.3001 312.701 18.3001Z" fill="#F2F2F2"/>
<path d="M312.701 29.0048C314.183 29.0048 315.384 27.8022 315.384 26.3188C315.384 24.8354 314.183 23.6328 312.701 23.6328C311.22 23.6328 310.019 24.8354 310.019 26.3188C310.019 27.8022 311.22 29.0048 312.701 29.0048Z" fill="#F2F2F2"/>
<path d="M312.701 39.7094C314.183 39.7094 315.384 38.5069 315.384 37.0235C315.384 35.5401 314.183 34.3375 312.701 34.3375C311.22 34.3375 310.019 35.5401 310.019 37.0235C310.019 38.5069 311.22 39.7094 312.701 39.7094Z" fill="#F2F2F2"/>
<path d="M301.5 7.5954C302.982 7.5954 304.183 6.39285 304.183 4.90944C304.183 3.42602 302.982 2.22348 301.5 2.22348C300.018 2.22348 298.817 3.42602 298.817 4.90944C298.817 6.39285 300.018 7.5954 301.5 7.5954Z" fill="#F2F2F2"/>
<path d="M301.5 18.3001C302.982 18.3001 304.183 17.0975 304.183 15.6141C304.183 14.1307 302.982 12.9282 301.5 12.9282C300.018 12.9282 298.817 14.1307 298.817 15.6141C298.817 17.0975 300.018 18.3001 301.5 18.3001Z" fill="#F2F2F2"/>
<path d="M301.5 29.0048C302.982 29.0048 304.183 27.8022 304.183 26.3188C304.183 24.8354 302.982 23.6328 301.5 23.6328C300.018 23.6328 298.817 24.8354 298.817 26.3188C298.817 27.8022 300.018 29.0048 301.5 29.0048Z" fill="#F2F2F2"/>
<path d="M301.5 39.7094C302.982 39.7094 304.183 38.5069 304.183 37.0235C304.183 35.5401 302.982 34.3375 301.5 34.3375C300.018 34.3375 298.817 35.5401 298.817 37.0235C298.817 38.5069 300.018 39.7094 301.5 39.7094Z" fill="#F2F2F2"/>
<path d="M290.299 7.5954C291.78 7.5954 292.981 6.39285 292.981 4.90944C292.981 3.42602 291.78 2.22348 290.299 2.22348C288.817 2.22348 287.616 3.42602 287.616 4.90944C287.616 6.39285 288.817 7.5954 290.299 7.5954Z" fill="#F2F2F2"/>
<path d="M290.299 18.3001C291.78 18.3001 292.981 17.0975 292.981 15.6141C292.981 14.1307 291.78 12.9282 290.299 12.9282C288.817 12.9282 287.616 14.1307 287.616 15.6141C287.616 17.0975 288.817 18.3001 290.299 18.3001Z" fill="#F2F2F2"/>
<path d="M290.299 29.0048C291.78 29.0048 292.981 27.8022 292.981 26.3188C292.981 24.8354 291.78 23.6328 290.299 23.6328C288.817 23.6328 287.616 24.8354 287.616 26.3188C287.616 27.8022 288.817 29.0048 290.299 29.0048Z" fill="#F2F2F2"/>
<path d="M290.299 39.7094C291.78 39.7094 292.981 38.5069 292.981 37.0235C292.981 35.5401 291.78 34.3375 290.299 34.3375C288.817 34.3375 287.616 35.5401 287.616 37.0235C287.616 38.5069 288.817 39.7094 290.299 39.7094Z" fill="#F2F2F2"/>
<path d="M279.097 7.5954C280.579 7.5954 281.78 6.39285 281.78 4.90944C281.78 3.42602 280.579 2.22348 279.097 2.22348C277.616 2.22348 276.415 3.42602 276.415 4.90944C276.415 6.39285 277.616 7.5954 279.097 7.5954Z" fill="#F2F2F2"/>
<path d="M279.097 18.3001C280.579 18.3001 281.78 17.0975 281.78 15.6141C281.78 14.1307 280.579 12.9282 279.097 12.9282C277.616 12.9282 276.415 14.1307 276.415 15.6141C276.415 17.0975 277.616 18.3001 279.097 18.3001Z" fill="#F2F2F2"/>
<path d="M279.097 29.0048C280.579 29.0048 281.78 27.8022 281.78 26.3188C281.78 24.8354 280.579 23.6328 279.097 23.6328C277.616 23.6328 276.415 24.8354 276.415 26.3188C276.415 27.8022 277.616 29.0048 279.097 29.0048Z" fill="#F2F2F2"/>
<path d="M279.097 39.7094C280.579 39.7094 281.78 38.5069 281.78 37.0235C281.78 35.5401 280.579 34.3375 279.097 34.3375C277.616 34.3375 276.415 35.5401 276.415 37.0235C276.415 38.5069 277.616 39.7094 279.097 39.7094Z" fill="#F2F2F2"/>
<path d="M267.896 7.5954C269.378 7.5954 270.579 6.39285 270.579 4.90944C270.579 3.42602 269.378 2.22348 267.896 2.22348C266.414 2.22348 265.213 3.42602 265.213 4.90944C265.213 6.39285 266.414 7.5954 267.896 7.5954Z" fill="#F2F2F2"/>
<path d="M267.896 18.3001C269.378 18.3001 270.579 17.0975 270.579 15.6141C270.579 14.1307 269.378 12.9282 267.896 12.9282C266.414 12.9282 265.213 14.1307 265.213 15.6141C265.213 17.0975 266.414 18.3001 267.896 18.3001Z" fill="#F2F2F2"/>
<path d="M267.896 29.0048C269.378 29.0048 270.579 27.8022 270.579 26.3188C270.579 24.8354 269.378 23.6328 267.896 23.6328C266.414 23.6328 265.213 24.8354 265.213 26.3188C265.213 27.8022 266.414 29.0048 267.896 29.0048Z" fill="#F2F2F2"/>
<path d="M267.896 39.7094C269.378 39.7094 270.579 38.5069 270.579 37.0235C270.579 35.5401 269.378 34.3375 267.896 34.3375C266.414 34.3375 265.213 35.5401 265.213 37.0235C265.213 38.5069 266.414 39.7094 267.896 39.7094Z" fill="#F2F2F2"/>
<path d="M278.705 100.202C278.485 99.5969 278.395 98.9522 278.441 98.3101C278.487 97.668 278.668 97.0428 278.972 96.4757C279.277 95.9085 279.697 95.4121 280.206 95.0189C280.716 94.6258 281.302 94.3448 281.927 94.1944C282.126 94.1477 282.327 94.1149 282.529 94.0962L292.612 76.4033L290.066 72.0246L296.403 67.1299L301.252 73.8717C301.83 74.6822 302.132 75.6577 302.112 76.6534C302.093 77.6492 301.753 78.6121 301.144 79.3993L287.302 97.1401C287.352 97.281 287.395 97.4245 287.431 97.5698C287.581 98.1959 287.597 98.8467 287.478 99.4795C287.36 100.112 287.109 100.713 286.742 101.242C286.376 101.771 285.902 102.216 285.351 102.549C284.8 102.882 284.186 103.094 283.548 103.173C283.362 103.196 283.176 103.208 282.989 103.208C282.054 103.205 281.142 102.915 280.376 102.378C279.61 101.84 279.027 101.081 278.705 100.202Z" fill="#FFB8B8"/>
<path d="M259.034 187.272L253.948 187.271L251.528 167.631L259.035 167.631L259.034 187.272Z" fill="#FFB8B8"/>
<path d="M250.315 185.817H260.124V192H244.139C244.139 191.188 244.298 190.384 244.609 189.633C244.919 188.883 245.374 188.202 245.948 187.628C246.521 187.053 247.202 186.598 247.951 186.287C248.701 185.976 249.504 185.817 250.315 185.817Z" fill="#2F2E41"/>
<path d="M300.935 187.272L295.849 187.271L293.43 167.631L300.936 167.631L300.935 187.272Z" fill="#FFB8B8"/>
<path d="M292.216 185.817H302.025V192H286.04C286.04 191.188 286.2 190.384 286.51 189.633C286.821 188.883 287.275 188.202 287.849 187.628C288.422 187.053 289.103 186.598 289.853 186.287C290.602 185.976 291.405 185.817 292.216 185.817Z" fill="#2F2E41"/>
<path d="M297.814 68.0863L286.395 72.4305L283.607 64.6775C283.237 63.648 283.242 62.5207 283.622 61.4947C284.001 60.4687 284.731 59.6101 285.682 59.0706C286.644 58.5249 287.769 58.3416 288.854 58.5537C289.939 58.7658 290.913 59.3593 291.599 60.2271L297.814 68.0863Z" fill="#FF5300"/>
<path d="M259.473 171.365L249.896 169.178C249.387 169.061 248.941 168.755 248.647 168.322C248.354 167.889 248.235 167.361 248.315 166.844C252.157 142.459 255.855 128.179 265.382 110.045C265.515 109.707 267.003 102.844 267.974 98.2971C267.963 97.7961 268.134 97.3082 268.456 96.9243C268.777 96.5404 269.228 96.2867 269.722 96.2104L287.58 93.459C287.849 93.3655 288.134 93.3226 288.419 93.3327L288.597 93.3665L288.595 93.5424C288.593 93.7241 288.412 93.7519 288.344 93.7624L288.107 93.7989C288.377 93.9252 288.626 94.0944 288.843 94.3C296.667 103.721 300.736 134.605 305.903 168.723C305.932 169 305.898 169.279 305.805 169.542C305.711 169.804 305.56 170.042 305.363 170.238C305.176 170.442 304.949 170.606 304.697 170.721C304.445 170.835 304.172 170.897 303.895 170.902L292.486 171.181C291.984 171.192 291.496 171.021 291.112 170.698C290.728 170.376 290.473 169.925 290.397 169.429L282.712 124.967C282.659 124.62 282.496 124.298 282.248 124.05C282.001 123.801 281.68 123.638 281.333 123.585C280.986 123.531 280.631 123.59 280.32 123.752C280.009 123.914 279.757 124.172 279.602 124.487C273.403 137.128 267.621 148.06 261.926 169.87C261.814 170.312 261.557 170.704 261.197 170.984C260.837 171.264 260.394 171.417 259.938 171.417C259.782 171.417 259.626 171.4 259.473 171.365Z" fill="#2F2E41"/>
<path d="M268.769 98.8049C268.529 98.6347 268.327 98.4152 268.178 98.1611C268.029 97.907 267.936 97.624 267.905 97.3309C266.442 83.6622 267.461 72.9654 271.019 64.6292C271.645 63.1914 272.589 61.9145 273.78 60.8944C274.97 59.8744 276.376 59.1377 277.892 58.7398L287.122 58.2733L287.17 58.2965C289.253 59.3179 290.952 60.9841 292.014 63.0481C293.077 65.1121 293.447 67.464 293.069 69.755C290.1 77.5897 287.614 85.7468 289.51 92.3272C289.59 92.6023 289.613 92.8906 289.578 93.1749C289.544 93.4592 289.452 93.7336 289.309 93.9816C289.171 94.2214 288.984 94.4302 288.762 94.5951C288.54 94.7601 288.286 94.8777 288.017 94.9407L270.435 99.1278C270.151 99.1956 269.855 99.2019 269.567 99.1462C269.28 99.0905 269.008 98.9742 268.769 98.8049Z" fill="#FF5300"/>
<path d="M264.796 79.1894L247.092 65.2066C246.951 65.2562 246.807 65.2986 246.662 65.3335C246.037 65.4799 245.388 65.4929 244.758 65.3719C244.128 65.2509 243.53 64.9985 243.004 64.631C242.474 64.2633 242.028 63.7866 241.697 63.2326C241.366 62.6787 241.157 62.0604 241.084 61.419C240.965 60.3938 241.196 59.3584 241.739 58.481C242.282 57.6035 243.105 56.9355 244.075 56.5852C244.68 56.3679 245.325 56.281 245.966 56.3303C246.607 56.3796 247.23 56.5639 247.795 56.8712C248.36 57.1786 248.854 57.6019 249.245 58.1136C249.635 58.6253 249.913 59.2137 250.06 59.8404C250.106 60.039 250.137 60.2405 250.155 60.4436L267.779 70.6224L272.165 68.0945L277.023 74.4625L270.214 79.3217C269.417 79.8858 268.459 80.1776 267.483 80.1538C266.507 80.13 265.565 79.7918 264.796 79.1894H264.796Z" fill="#FFB8B8"/>
<path d="M279.184 76.4456L269.082 69.5687L273.829 62.8373C274.46 61.9435 275.385 61.3015 276.443 61.0249C277.5 60.7482 278.621 60.8547 279.608 61.3255C280.606 61.8017 281.401 62.6195 281.849 63.6312C282.298 64.643 282.37 65.7819 282.053 66.8423L279.184 76.4456Z" fill="#FF5300"/>
<path d="M284.042 54.8218C289.669 54.8218 294.231 50.2545 294.231 44.6206C294.231 38.9866 289.669 34.4194 284.042 34.4194C278.414 34.4194 273.852 38.9866 273.852 44.6206C273.852 50.2545 278.414 54.8218 284.042 54.8218Z" fill="#FFB8B8"/>
<path d="M280.306 43.1012C277.687 44.8957 274.248 46.7403 271.573 44.8293C269.817 43.5745 269.264 41.251 269.976 39.2119C271.257 35.545 274.776 33.9307 278.141 32.6933C282.515 31.0847 287.278 29.8049 291.794 30.957C296.31 32.109 300.301 36.4863 299.486 41.08C298.831 44.7741 295.35 47.8479 295.844 51.5672C296.341 55.3103 300.546 57.2805 304.258 57.9495C307.97 58.6185 312.124 58.8335 314.792 61.5028C318.195 64.9081 317.345 70.9947 314.143 74.59C310.941 78.1853 306.108 79.8151 301.426 80.923C295.222 82.3909 288.511 83.1623 282.619 80.7262C276.727 78.2901 272.141 71.7323 273.848 65.583C274.569 62.9855 276.268 60.7903 277.909 58.6532C279.551 56.5161 281.213 54.2814 281.839 51.6594C282.361 49.4744 281.975 46.9375 280.527 45.2985C280.264 45.0116 280.098 44.6486 280.054 44.2616C280.01 43.8746 280.089 43.4834 280.281 43.1444L280.306 43.1012Z" fill="#2F2E41"/>
</g>
<defs>
<clipPath id="clip0_147_56">
<rect width="372" height="192" fill="white"/>
</clipPath>
</defs>
</svg>
