<svg width="40" height="40" viewBox="0 0 40 40" fill="none" xmlns="http://www.w3.org/2000/svg">
<g clip-path="url(#clip0_73_30)">
<path d="M30.0516 27.6952L37.1899 34.8318L34.8316 37.1902L27.6949 30.0518C25.0395 32.1805 21.7366 33.3383 18.3333 33.3335C10.0533 33.3335 3.33325 26.6135 3.33325 18.3335C3.33325 10.0535 10.0533 3.3335 18.3333 3.3335C26.6133 3.3335 33.3333 10.0535 33.3333 18.3335C33.3381 21.7368 32.1803 25.0397 30.0516 27.6952ZM26.7083 26.4585C28.8234 24.2833 30.0047 21.3675 29.9999 18.3335C29.9999 11.8868 24.7783 6.66683 18.3333 6.66683C11.8866 6.66683 6.66659 11.8868 6.66659 18.3335C6.66659 24.7785 11.8866 30.0002 18.3333 30.0002C21.3673 30.0049 24.2831 28.8237 26.4583 26.7085L26.7083 26.4585V26.4585Z" fill="white"/>
</g>
<defs>
<clipPath id="clip0_73_30">
<rect width="40" height="40" fill="white"/>
</clipPath>
</defs>
</svg>
