<svg width="343" height="233" viewBox="0 0 343 233" fill="none" xmlns="http://www.w3.org/2000/svg">
<g clip-path="url(#clip0_147_1)" filter="url(#filter0_d_147_1)">
<path d="M270.872 99.5724L271.866 91.5812C272.22 88.7412 273.684 86.1583 275.937 84.4006C278.19 82.643 281.047 81.8546 283.88 82.2089C286.713 82.5632 289.289 84.0312 291.042 86.2899C292.795 88.5487 293.582 91.4131 293.228 94.2531L292.234 102.244C292.186 102.626 291.989 102.972 291.687 103.208C291.384 103.444 291.001 103.55 290.62 103.503L272.128 101.19C271.747 101.142 271.402 100.945 271.166 100.642C270.931 100.338 270.825 99.9538 270.872 99.5724Z" fill="#2F2E41"/>
<path d="M279.73 101.957C284.088 101.957 287.622 98.4143 287.622 94.0448C287.622 89.6752 284.088 86.133 279.73 86.133C275.372 86.133 271.838 89.6752 271.838 94.0448C271.838 98.4143 275.372 101.957 279.73 101.957Z" fill="#FFB8B8"/>
<path d="M269.26 91.9045C269.542 89.659 270.701 87.6173 272.482 86.2274C274.264 84.8375 276.523 84.2129 278.763 84.4905L280.357 84.69C282.597 84.9727 284.633 86.1345 286.02 87.9207C287.406 89.7068 288.029 91.9713 287.752 94.2174L287.732 94.3773L284.363 93.9559L283.616 90.5863L282.984 93.7834L281.243 93.5656L280.866 91.8655L280.548 93.4786L269.24 92.0643L269.26 91.9045Z" fill="#2F2E41"/>
<path d="M241.133 122.268C241.374 122.742 241.716 123.158 242.135 123.486C242.554 123.814 243.039 124.046 243.557 124.165C244.075 124.285 244.613 124.289 245.132 124.177C245.652 124.066 246.141 123.841 246.565 123.52L253.733 127.73L257.347 123.986L247.141 118.184C246.555 117.506 245.742 117.067 244.855 116.95C243.968 116.834 243.068 117.047 242.328 117.55C241.587 118.054 241.056 118.812 240.836 119.681C240.616 120.551 240.721 121.471 241.133 122.268Z" fill="#FFB8B8"/>
<path d="M264.625 129.832C259.337 129.832 250.034 127.459 249.519 127.326L249.356 127.284L250.82 119.852L265.031 122.666L272.751 111.767L281.614 110.863L281.366 111.19C281.251 111.342 269.826 126.42 268.048 128.95C267.599 129.588 266.318 129.832 264.625 129.832Z" fill="#3F3D56"/>
<path d="M266.042 157.728L265.83 157.627C265.785 157.605 261.293 155.415 258.967 151.138C256.651 146.882 267.491 128.828 268.249 127.575L268.26 121.841L272.16 111.287L277.133 108.469L272.863 118.456L266.042 157.728Z" fill="#3F3D56"/>
<path d="M261.06 219.353L256.307 219.353L254.046 200.973L261.061 200.974L261.06 219.353Z" fill="#FFB8B8"/>
<path d="M262.272 223.972L246.947 223.971V223.777C246.947 222.191 247.576 220.67 248.694 219.548C249.813 218.427 251.33 217.797 252.912 217.797H252.912L262.272 217.797L262.272 223.972Z" fill="#2F2E41"/>
<path d="M312.11 215.177L307.594 216.66L299.737 199.901L306.402 197.712L312.11 215.177Z" fill="#FFB8B8"/>
<path d="M314.697 219.188L300.134 223.972L300.073 223.787C299.581 222.28 299.706 220.638 300.42 219.223C301.135 217.808 302.381 216.736 303.884 216.242L303.885 216.242L312.779 213.32L314.697 219.188Z" fill="#2F2E41"/>
<path d="M302.908 212.172L289.359 189.495L277.922 165.267L267.629 186.669L263.541 214.387L249.202 214.586L249.259 214.362L271.201 126.95L288.387 129.524L287.604 140.897L288.07 141.561C291.952 147.09 295.966 152.807 293.664 158.969L300.19 178.397L314.637 210.747L302.908 212.172Z" fill="#2F2E41"/>
<path d="M271.987 145.895C269.496 145.895 266.655 143.044 268.129 138.178L268.034 138.108L271.574 122.427C268.484 117.997 272.558 114.341 272.94 114.015L274.884 110.506L283.463 105.051L287.804 141.209L287.739 141.271C284.604 144.278 274.075 145.895 271.987 145.895Z" fill="#FF5300"/>
<path d="M289.556 154.054C289.215 154.059 288.875 154.023 288.543 153.947C288.209 153.863 287.669 153.437 286.834 150.712C283.516 139.881 279.598 107.29 282.444 104.1L282.509 104.027L287.183 104.808C287.571 104.521 289.61 103.094 291.491 103.342C291.878 103.391 292.251 103.519 292.587 103.718C292.924 103.917 293.215 104.183 293.445 104.5L293.477 104.542L294.966 125.777L300.42 150.767L300.289 150.827C299.972 150.971 293.161 154.054 289.556 154.054Z" fill="#3F3D56"/>
<path d="M286.413 145.754C286.944 145.736 287.465 145.602 287.939 145.361C288.413 145.119 288.828 144.777 289.155 144.357C289.483 143.937 289.714 143.451 289.834 142.932C289.954 142.413 289.958 141.874 289.847 141.352L296.689 136.628L294.839 131.76L285.271 138.567C284.411 138.812 283.669 139.365 283.187 140.121C282.706 140.877 282.518 141.783 282.658 142.669C282.799 143.555 283.259 144.358 283.951 144.927C284.643 145.496 285.519 145.79 286.413 145.754Z" fill="#FFB8B8"/>
<path d="M294.431 140.414L288.337 135.933L296.903 124.223L290.33 112.593L293.271 104.162L293.461 104.525C293.549 104.694 302.328 121.46 303.859 124.147C305.453 126.942 294.984 139.74 294.538 140.283L294.431 140.414Z" fill="#3F3D56"/>
<path d="M157.357 193.121L152.17 190.932L148.612 164.866H101.233L97.3768 190.825L92.7368 193.151C92.5148 193.263 92.3367 193.446 92.2315 193.671C92.1263 193.897 92.1001 194.151 92.1572 194.393C92.2142 194.635 92.3511 194.851 92.5458 195.006C92.7404 195.16 92.9814 195.244 93.2296 195.244H156.929C157.184 195.244 157.43 195.156 157.627 194.994C157.824 194.833 157.959 194.608 158.009 194.358C158.06 194.108 158.022 193.848 157.903 193.623C157.784 193.397 157.591 193.22 157.357 193.121Z" fill="#E6E6E6"/>
<path d="M241.552 168.334H8.81307C7.59195 168.331 6.42178 167.843 5.55929 166.976C4.6968 166.11 4.21241 164.935 4.2124 163.711V130.808H246.153V163.711C246.153 164.935 245.669 166.11 244.806 166.976C243.944 167.843 242.773 168.331 241.552 168.334Z" fill="#CCCCCC"/>
<path d="M246.396 146.359H4V5.57266C4.0017 4.09519 4.58789 2.67872 5.62998 1.63401C6.67206 0.589298 8.08493 0.00165698 9.55863 0H240.838C242.311 0.00165318 243.724 0.589294 244.766 1.634C245.808 2.67872 246.395 4.09518 246.396 5.57266V146.359Z" fill="#3F3D56"/>
<path d="M231.919 136.14H18.4774C17.3413 136.139 16.2521 135.686 15.4487 134.881C14.6453 134.075 14.1934 132.983 14.1921 131.844V14.5144C14.1934 13.3754 14.6453 12.2833 15.4487 11.4779C16.252 10.6724 17.3413 10.2193 18.4774 10.218H231.919C233.055 10.2193 234.144 10.6724 234.948 11.4779C235.751 12.2833 236.203 13.3754 236.204 14.5144V131.844C236.203 132.983 235.751 134.075 234.948 134.881C234.144 135.686 233.055 136.139 231.919 136.14Z" fill="white"/>
<path d="M185.058 195.516H65.1221C64.9992 195.518 64.879 195.48 64.78 195.407C64.6811 195.334 64.609 195.23 64.5751 195.112C64.5539 195.031 64.5514 194.947 64.5679 194.865C64.5843 194.784 64.6192 194.707 64.67 194.641C64.7207 194.575 64.7858 194.521 64.8604 194.484C64.935 194.447 65.017 194.428 65.1001 194.428H185.013C185.143 194.424 185.27 194.463 185.375 194.54C185.479 194.618 185.554 194.728 185.588 194.854C185.605 194.933 185.605 195.016 185.587 195.095C185.568 195.174 185.532 195.249 185.481 195.312C185.43 195.376 185.366 195.427 185.293 195.462C185.219 195.498 185.139 195.516 185.058 195.516Z" fill="#CCCCCC"/>
<path d="M229.64 29.1867H178.106V68.6584H229.64V29.1867Z" fill="#F2F2F2"/>
<path d="M227.08 31.148H180.667V66.6971H227.08V31.148Z" fill="white"/>
<path d="M204.688 57.5166C204.694 57.5167 204.7 57.5166 204.707 57.5162C207.848 57.3515 210.81 55.9932 212.988 53.7176C215.167 51.442 216.399 48.4199 216.434 45.266C216.469 42.1121 215.305 39.0631 213.178 36.7391C211.051 34.4151 208.121 32.9906 204.983 32.7553C204.945 32.7522 204.906 32.7573 204.869 32.77C204.832 32.7828 204.798 32.8031 204.77 32.8295C204.741 32.8556 204.718 32.8872 204.703 32.9225C204.687 32.9578 204.679 32.996 204.679 33.0346L204.408 57.2301C204.407 57.3053 204.436 57.3777 204.489 57.4314C204.541 57.4851 204.613 57.5158 204.688 57.5166Z" fill="#3F3D56"/>
<path d="M194.983 36.7562C195.08 36.7574 195.172 36.7967 195.239 36.8657L203.547 45.3841C203.581 45.4181 203.607 45.4585 203.625 45.5029C203.642 45.5472 203.651 45.5947 203.651 45.6424L203.521 57.2201C203.521 57.2698 203.51 57.3188 203.49 57.3642C203.47 57.4096 203.44 57.4503 203.404 57.4837C203.367 57.5176 203.324 57.5435 203.277 57.5599C203.229 57.5764 203.179 57.5829 203.13 57.5791C200.82 57.4058 198.604 56.5901 196.731 55.2236C194.858 53.8571 193.402 51.994 192.527 49.8437C191.652 47.6933 191.392 45.3409 191.777 43.0508C192.162 40.7607 193.177 38.6237 194.706 36.8798C194.74 36.8422 194.78 36.8118 194.825 36.7906C194.871 36.7693 194.92 36.7577 194.97 36.7563C194.974 36.7562 194.979 36.7561 194.983 36.7562Z" fill="#E6E6E6"/>
<path d="M203.432 32.6564C203.524 32.6575 203.613 32.6939 203.68 32.7582C203.716 32.7925 203.745 32.8339 203.764 32.8798C203.783 32.9256 203.793 32.975 203.792 33.0247L203.675 43.4708C203.674 43.5427 203.652 43.6128 203.612 43.6721C203.571 43.7315 203.514 43.7775 203.447 43.8042C203.381 43.831 203.308 43.8374 203.238 43.8226C203.167 43.8078 203.103 43.7724 203.053 43.721L195.803 36.2877C195.768 36.2523 195.742 36.2103 195.724 36.1642C195.706 36.1181 195.698 36.0689 195.7 36.0195C195.702 35.9701 195.713 35.9216 195.734 35.877C195.756 35.8323 195.785 35.7924 195.822 35.7597C197.931 33.899 200.604 32.8058 203.409 32.6568C203.417 32.6565 203.424 32.6563 203.432 32.6564Z" fill="#FF5300"/>
<path d="M199.697 62.5339C199.692 62.9746 199.557 63.4039 199.308 63.7676C199.06 64.1313 198.71 64.413 198.302 64.577C197.894 64.7411 197.446 64.7802 197.016 64.6894C196.586 64.5986 196.192 64.3819 195.885 64.0668C195.578 63.7517 195.371 63.3523 195.29 62.9191C195.209 62.486 195.258 62.0384 195.431 61.6332C195.603 61.2279 195.892 60.8832 196.26 60.6424C196.628 60.4017 197.06 60.2759 197.499 60.2808C198.088 60.2881 198.651 60.5294 199.063 60.9518C199.475 61.3742 199.703 61.9432 199.697 62.5339Z" fill="#FF5300"/>
<path d="M206.047 62.6053C206.042 63.046 205.907 63.4753 205.658 63.839C205.41 64.2026 205.06 64.4843 204.652 64.6484C204.244 64.8125 203.796 64.8516 203.366 64.7608C202.936 64.67 202.542 64.4533 202.235 64.1382C201.928 63.8231 201.72 63.4237 201.64 62.9905C201.559 62.5573 201.608 62.1098 201.78 61.7046C201.953 61.2993 202.242 60.9545 202.61 60.7138C202.978 60.4731 203.41 60.3472 203.849 60.3522C204.438 60.3595 205.001 60.6008 205.413 61.0232C205.825 61.4456 206.053 62.0145 206.047 62.6053Z" fill="#3F3D56"/>
<path d="M212.396 62.6766C212.392 63.1173 212.256 63.5467 212.008 63.9103C211.76 64.274 211.409 64.5557 211.001 64.7198C210.594 64.8838 210.146 64.9229 209.716 64.8321C209.286 64.7413 208.892 64.5246 208.585 64.2095C208.278 63.8944 208.07 63.495 207.989 63.0619C207.908 62.6287 207.957 62.1812 208.13 61.7759C208.303 61.3707 208.592 61.0259 208.96 60.7852C209.328 60.5444 209.759 60.4186 210.199 60.4235C210.788 60.4308 211.35 60.6721 211.762 61.0945C212.174 61.5169 212.402 62.0859 212.396 62.6766Z" fill="#E6E6E6"/>
<path d="M229.098 74.8705H177.563V114.342H229.098V74.8705Z" fill="#F2F2F2"/>
<path d="M226.537 76.8318H180.124V112.381H226.537V76.8318Z" fill="white"/>
<path d="M187.999 88.5157C189.063 88.5157 189.926 87.6507 189.926 86.5837C189.926 85.5167 189.063 84.6517 187.999 84.6517C186.935 84.6517 186.072 85.5167 186.072 86.5837C186.072 87.6507 186.935 88.5157 187.999 88.5157Z" fill="#3F3D56"/>
<path d="M218.962 85.0802C219.134 85.08 219.304 85.1136 219.463 85.1794C219.622 85.2451 219.766 85.3415 219.888 85.4632C220.009 85.5849 220.106 85.7295 220.172 85.8886C220.238 86.0477 220.271 86.2183 220.271 86.3905C220.271 86.5628 220.238 86.7333 220.172 86.8924C220.106 87.0516 220.009 87.1961 219.888 87.3178C219.766 87.4395 219.622 87.536 219.463 87.6017C219.304 87.6674 219.134 87.7011 218.962 87.7008H198.694C198.348 87.7008 198.015 87.5627 197.77 87.317C197.525 87.0713 197.387 86.738 197.387 86.3905C197.387 86.043 197.525 85.7097 197.77 85.464C198.015 85.2183 198.348 85.0802 198.694 85.0802H218.962ZM218.962 84.7593H198.694C198.481 84.759 198.269 84.801 198.071 84.8828C197.873 84.9646 197.694 85.0847 197.542 85.2362C197.391 85.3877 197.271 85.5677 197.189 85.7657C197.107 85.9638 197.065 86.1761 197.065 86.3905C197.065 86.6049 197.107 86.8172 197.189 87.0153C197.271 87.2134 197.391 87.3933 197.542 87.5448C197.694 87.6963 197.873 87.8164 198.071 87.8982C198.269 87.9801 198.481 88.022 198.694 88.0217H218.962C219.176 88.022 219.388 87.9801 219.586 87.8982C219.783 87.8164 219.963 87.6963 220.114 87.5448C220.266 87.3933 220.386 87.2134 220.468 87.0153C220.55 86.8172 220.592 86.6049 220.592 86.3905C220.592 86.1761 220.55 85.9638 220.468 85.7657C220.386 85.5677 220.266 85.3877 220.114 85.2362C219.963 85.0847 219.783 84.9646 219.586 84.8828C219.388 84.801 219.176 84.759 218.962 84.7593Z" fill="#3F3D56"/>
<path d="M210.965 88.0217H195.707C195.276 88.0217 194.862 87.8498 194.557 87.5439C194.252 87.238 194.08 86.8231 194.08 86.3905C194.08 85.9579 194.252 85.543 194.557 85.2371C194.862 84.9312 195.276 84.7593 195.707 84.7593H210.965C211.396 84.7593 211.81 84.9312 212.115 85.2371C212.42 85.543 212.592 85.9579 212.592 86.3905C212.592 86.8231 212.42 87.238 212.115 87.5439C211.81 87.8498 211.396 88.0217 210.965 88.0217Z" fill="#FF5300"/>
<path d="M187.999 96.5384C189.063 96.5384 189.926 95.6734 189.926 94.6064C189.926 93.5394 189.063 92.6744 187.999 92.6744C186.935 92.6744 186.072 93.5394 186.072 94.6064C186.072 95.6734 186.935 96.5384 187.999 96.5384Z" fill="#3F3D56"/>
<path d="M218.962 93.103C219.134 93.1027 219.304 93.1364 219.463 93.2021C219.622 93.2678 219.766 93.3643 219.888 93.486C220.01 93.6077 220.106 93.7522 220.172 93.9113C220.238 94.0704 220.272 94.241 220.272 94.4132C220.272 94.5855 220.238 94.756 220.172 94.9151C220.106 95.0742 220.01 95.2188 219.888 95.3405C219.766 95.4622 219.622 95.5586 219.463 95.6244C219.304 95.6901 219.134 95.7238 218.962 95.7235H198.694C198.348 95.7235 198.015 95.5854 197.77 95.3397C197.525 95.094 197.387 94.7607 197.387 94.4132C197.387 94.0657 197.525 93.7324 197.77 93.4867C198.015 93.241 198.348 93.103 198.694 93.103H218.962ZM218.962 92.782H198.694C198.263 92.782 197.849 92.9539 197.544 93.2598C197.239 93.5657 197.067 93.9806 197.067 94.4132C197.067 94.8458 197.239 95.2607 197.544 95.5666C197.849 95.8725 198.263 96.0444 198.694 96.0444H218.962C219.394 96.0444 219.808 95.8725 220.113 95.5666C220.418 95.2607 220.589 94.8458 220.589 94.4132C220.589 93.9806 220.418 93.5657 220.113 93.2598C219.808 92.9539 219.394 92.782 218.962 92.782Z" fill="#3F3D56"/>
<path d="M216.727 96.0444H195.707C195.276 96.0444 194.862 95.8725 194.557 95.5666C194.252 95.2607 194.08 94.8458 194.08 94.4132C194.08 93.9806 194.252 93.5657 194.557 93.2598C194.862 92.9539 195.276 92.782 195.707 92.782H216.727C217.158 92.782 217.572 92.9539 217.877 93.2598C218.182 93.5657 218.354 93.9806 218.354 94.4132C218.354 94.8458 218.182 95.2607 217.877 95.5666C217.572 95.8725 217.158 96.0444 216.727 96.0444Z" fill="#FF5300"/>
<path d="M187.999 104.561C189.063 104.561 189.926 103.696 189.926 102.629C189.926 101.562 189.063 100.697 187.999 100.697C186.935 100.697 186.072 101.562 186.072 102.629C186.072 103.696 186.935 104.561 187.999 104.561Z" fill="#3F3D56"/>
<path d="M218.962 101.126C219.134 101.125 219.304 101.159 219.463 101.225C219.622 101.29 219.766 101.387 219.888 101.509C220.01 101.63 220.106 101.775 220.172 101.934C220.238 102.093 220.272 102.264 220.272 102.436C220.272 102.608 220.238 102.779 220.172 102.938C220.106 103.097 220.01 103.241 219.888 103.363C219.766 103.485 219.622 103.581 219.463 103.647C219.304 103.713 219.134 103.746 218.962 103.746H198.694C198.348 103.746 198.015 103.608 197.77 103.362C197.525 103.117 197.387 102.783 197.387 102.436C197.387 102.088 197.525 101.755 197.77 101.509C198.015 101.264 198.348 101.126 198.694 101.126H218.962ZM218.962 100.805H198.694C198.263 100.805 197.849 100.977 197.544 101.283C197.239 101.588 197.067 102.003 197.067 102.436C197.067 102.869 197.239 103.283 197.544 103.589C197.849 103.895 198.263 104.067 198.694 104.067H218.962C219.394 104.067 219.808 103.895 220.113 103.589C220.418 103.283 220.589 102.869 220.589 102.436C220.589 102.003 220.418 101.588 220.113 101.283C219.808 100.977 219.394 100.805 218.962 100.805Z" fill="#3F3D56"/>
<path d="M204.243 104.067H195.707C195.493 104.067 195.282 104.025 195.084 103.944C194.886 103.862 194.707 103.742 194.555 103.59C194.404 103.439 194.284 103.259 194.202 103.061C194.12 102.863 194.078 102.65 194.078 102.436C194.078 102.222 194.12 102.009 194.202 101.811C194.284 101.613 194.404 101.433 194.555 101.282C194.707 101.13 194.886 101.01 195.084 100.928C195.282 100.846 195.493 100.804 195.707 100.805H204.243C204.674 100.805 205.087 100.978 205.392 101.283C205.696 101.589 205.868 102.004 205.868 102.436C205.868 102.868 205.696 103.283 205.392 103.588C205.087 103.894 204.674 104.066 204.243 104.067Z" fill="#FF5300"/>
<path d="M166.172 36.1702H22.1934V110.148H166.172V36.1702Z" fill="#F2F2F2"/>
<path d="M161.372 39.8461H26.9927V106.472H161.372V39.8461Z" fill="white"/>
<path d="M144.706 96.3074H46.7463C46.665 96.3074 46.587 96.275 46.5295 96.2174C46.472 96.1598 46.4397 96.0816 46.4397 96.0001V48.9277C46.4397 48.8461 46.472 48.768 46.5295 48.7103C46.587 48.6527 46.665 48.6203 46.7463 48.6203C46.8276 48.6203 46.9056 48.6527 46.963 48.7103C47.0205 48.768 47.0528 48.8461 47.0528 48.9277V95.6927H144.706C144.788 95.6927 144.866 95.7251 144.923 95.7827C144.981 95.8404 145.013 95.9186 145.013 96.0001C145.013 96.0816 144.981 96.1598 144.923 96.2174C144.866 96.275 144.788 96.3074 144.706 96.3074Z" fill="#3F3D56"/>
<path d="M67.6761 92.9266H58.7663C58.525 92.9263 58.2937 92.8301 58.1231 92.6591C57.9525 92.488 57.8565 92.2561 57.8562 92.0142V79.7005C57.8565 79.4586 57.9525 79.2267 58.1231 79.0557C58.2937 78.8847 58.525 78.7885 58.7663 78.7882H67.6761C67.9174 78.7885 68.1487 78.8847 68.3193 79.0557C68.4899 79.2267 68.5859 79.4586 68.5862 79.7005V92.0142C68.5859 92.2561 68.4899 92.488 68.3193 92.6591C68.1487 92.8301 67.9174 92.9263 67.6761 92.9266Z" fill="#FF5300"/>
<path d="M83.9244 92.9265H75.0145C74.7733 92.9263 74.542 92.8301 74.3714 92.659C74.2008 92.488 74.1048 92.2561 74.1045 92.0142V68.021C74.1048 67.7791 74.2008 67.5472 74.3714 67.3762C74.542 67.2052 74.7733 67.109 75.0145 67.1087H83.9244C84.1657 67.109 84.397 67.2052 84.5676 67.3762C84.7382 67.5472 84.8342 67.7791 84.8345 68.021V92.0142C84.8342 92.2561 84.7382 92.488 84.5676 92.659C84.397 92.8301 84.1657 92.9263 83.9244 92.9265Z" fill="#FF5300"/>
<path d="M100.172 92.9266H91.2626C91.0213 92.9263 90.79 92.8301 90.6194 92.659C90.4488 92.488 90.3528 92.2561 90.3525 92.0142V79.7005C90.3528 79.4586 90.4488 79.2267 90.6194 79.0557C90.79 78.8847 91.0213 78.7885 91.2626 78.7882H100.172C100.414 78.7885 100.645 78.8847 100.816 79.0557C100.986 79.2267 101.082 79.4586 101.083 79.7005V92.0142C101.082 92.2561 100.986 92.488 100.816 92.6591C100.645 92.8301 100.414 92.9263 100.172 92.9266Z" fill="#FF5300"/>
<path d="M116.421 92.9265H107.511C107.275 92.9316 107.047 92.8428 106.876 92.6795C106.706 92.5163 106.607 92.2919 106.601 92.0555V63.3694C106.607 63.133 106.706 62.9086 106.876 62.7454C107.047 62.5821 107.275 62.4933 107.511 62.4984H116.421C116.657 62.4933 116.885 62.5821 117.055 62.7454C117.226 62.9086 117.325 63.133 117.331 63.3694V92.0555C117.325 92.2919 117.226 92.5163 117.055 92.6795C116.885 92.8428 116.657 92.9316 116.421 92.9265Z" fill="#FF5300"/>
<path d="M132.669 92.9265H123.759C123.518 92.9263 123.287 92.8301 123.116 92.659C122.945 92.488 122.849 92.2561 122.849 92.0142V55.1121C122.849 54.8703 122.945 54.6384 123.116 54.4673C123.287 54.2963 123.518 54.2001 123.759 54.1998H132.669C132.91 54.2001 133.142 54.2963 133.312 54.4673C133.483 54.6384 133.579 54.8703 133.579 55.1121V92.0142C133.579 92.2561 133.483 92.488 133.312 92.659C133.142 92.8301 132.91 92.9263 132.669 92.9265Z" fill="#FF5300"/>
<path d="M63.221 75.0999C64.2369 75.0999 65.0605 74.2743 65.0605 73.2558C65.0605 72.2373 64.2369 71.4117 63.221 71.4117C62.2051 71.4117 61.3816 72.2373 61.3816 73.2558C61.3816 74.2743 62.2051 75.0999 63.221 75.0999Z" fill="#3F3D56"/>
<path d="M79.4693 63.1131C80.4852 63.1131 81.3087 62.2875 81.3087 61.269C81.3087 60.2505 80.4852 59.4248 79.4693 59.4248C78.4534 59.4248 77.6299 60.2505 77.6299 61.269C77.6299 62.2875 78.4534 63.1131 79.4693 63.1131Z" fill="#3F3D56"/>
<path d="M95.7176 75.0999C96.7335 75.0999 97.557 74.2743 97.557 73.2558C97.557 72.2373 96.7335 71.4117 95.7176 71.4117C94.7017 71.4117 93.8782 72.2373 93.8782 73.2558C93.8782 74.2743 94.7017 75.0999 95.7176 75.0999Z" fill="#3F3D56"/>
<path d="M111.966 57.2734C112.982 57.2734 113.805 56.4477 113.805 55.4292C113.805 54.4108 112.982 53.5851 111.966 53.5851C110.95 53.5851 110.126 54.4108 110.126 55.4292C110.126 56.4477 110.95 57.2734 111.966 57.2734Z" fill="#3F3D56"/>
<path d="M128.214 50.5116C129.23 50.5116 130.054 49.6859 130.054 48.6674C130.054 47.6489 129.23 46.8233 128.214 46.8233C127.198 46.8233 126.375 47.6489 126.375 48.6674C126.375 49.6859 127.198 50.5116 128.214 50.5116Z" fill="#3F3D56"/>
<path d="M95.7562 73.6689L79.4695 61.4386L63.4049 73.5017L63.0374 73.01L79.4695 60.6703L95.6788 72.8425L111.787 55.1704L111.851 55.144L128.099 48.5808L128.329 49.1509L112.145 55.6881L95.7562 73.6689Z" fill="#3F3D56"/>
<path d="M338.645 225H203.23C203.135 225 203.045 224.962 202.978 224.896C202.912 224.829 202.874 224.738 202.874 224.644C202.874 224.549 202.912 224.459 202.978 224.392C203.045 224.325 203.135 224.287 203.23 224.287H338.645C338.739 224.287 338.829 224.325 338.896 224.392C338.963 224.459 339 224.549 339 224.644C339 224.738 338.963 224.829 338.896 224.896C338.829 224.962 338.739 225 338.645 225Z" fill="#CCCCCC"/>
</g>
<defs>
<filter id="filter0_d_147_1" x="0" y="0" width="343" height="233" filterUnits="userSpaceOnUse" color-interpolation-filters="sRGB">
<feFlood flood-opacity="0" result="BackgroundImageFix"/>
<feColorMatrix in="SourceAlpha" type="matrix" values="0 0 0 0 0 0 0 0 0 0 0 0 0 0 0 0 0 0 127 0" result="hardAlpha"/>
<feOffset dy="4"/>
<feGaussianBlur stdDeviation="2"/>
<feComposite in2="hardAlpha" operator="out"/>
<feColorMatrix type="matrix" values="0 0 0 0 0 0 0 0 0 0 0 0 0 0 0 0 0 0 0.25 0"/>
<feBlend mode="normal" in2="BackgroundImageFix" result="effect1_dropShadow_147_1"/>
<feBlend mode="normal" in="SourceGraphic" in2="effect1_dropShadow_147_1" result="shape"/>
</filter>
<clipPath id="clip0_147_1">
<rect width="335" height="225" fill="white" transform="translate(4)"/>
</clipPath>
</defs>
</svg>
